<svg id="Calque_1" data-name="Calque 1" xmlns="http://www.w3.org/2000/svg" viewBox="0 0 345 345"><title>carte-impro-solutions</title><path d="M298.91,74.69c9.7,3.46,17.44,5.81,17.44,5.81H345S322.73,125,325.29,144.33m-55.22-82c-4.56-2.56-7.92-5.09-9-7.38-4.93-10.23-23-12.47-23-12.47s-17.15-9.09-25.36-24.37c-10.41-19.36-21.72-11.91-31-11S165.6,39.74,165.6,39.74s-41.61,49.13-48,33.5S96.8,63,89.68,62.63s0,17.87,0,17.87-2.37,30.7-23.54,20.09C43.5,89.25,27.45,95.2,27.45,95.2S5,108.22,5,115.85s11.13,8,11.13,8c25.74,8,38.15,21.58,38.15,21.58m29.65,38.43a125,125,0,0,1,8.67,14.42l4.2,22c9.49,62.34-21,91.74-21,91.74,23,36.1,71.18,32.94,71.18,32.94" transform="translate(-2.5 -2.5)" fill="none" stroke="#ccc" stroke-linecap="round" stroke-linejoin="round" stroke-width="5"/><path d="M88.33,114.35a13.87,13.87,0,0,0-13.59,14.12c0,7.81,13.57,28.41,13.57,28.41s13.6-20.59,13.61-28.39A13.87,13.87,0,0,0,88.33,114.35Zm0,20.15a6.65,6.65,0,1,1,6.39-6.64A6.51,6.51,0,0,1,88.32,134.5Z" transform="translate(-2.5 -2.5)" fill="#f9f871"/><path d="M286.89,34A13.87,13.87,0,0,0,273.3,48.08c0,7.81,13.57,28.41,13.57,28.41s13.6-20.59,13.61-28.39A13.87,13.87,0,0,0,286.89,34Zm0,20.15a6.64,6.64,0,1,1,6.4-6.64A6.52,6.52,0,0,1,286.88,54.11Z" transform="translate(-2.5 -2.5)" fill="#f9f871"/><path d="M141.37,238.1a7.71,7.71,0,0,0-7.55,7.84c0,4.33,7.54,15.76,7.54,15.76s7.55-11.42,7.55-15.75A7.7,7.7,0,0,0,141.37,238.1Zm0,11.18a3.69,3.69,0,1,1,3.55-3.68A3.62,3.62,0,0,1,141.36,249.28Z" transform="translate(-2.5 -2.5)" fill="#f9f871"/><path d="M140.55,291.71c-1.82,0-3.65,0-5.48,0-1.44,0-2-.61-2-2.1,0-3.07,0-6.14,0-9.21a2.1,2.1,0,0,1,1.34-2.09c1.76-.82,3.51-1.69,5.23-2.59a2.21,2.21,0,0,1,2.21,0q2.46,1.29,5,2.45a2.31,2.31,0,0,1,1.53,2.39c0,2.94,0,5.87,0,8.8,0,1.75-.54,2.3-2.23,2.31S142.38,291.71,140.55,291.71Zm-2.4-1.74c1.59,0,1.67-.1,1.67-1.9,0-1.63-.13-1.76-1.74-1.75s-1.67.15-1.67,1.71C136.41,289.9,136.47,290,138.15,290Zm5,0c1.7,0,1.78-.08,1.79-1.78s-.12-1.88-1.73-1.87-1.68.15-1.68,1.7C141.49,289.89,141.56,290,143.11,290Zm-2.47-5.59c1.65,0,1.69,0,1.69-1.64s-.08-1.81-1.66-1.81S139,281,139,282.7,139,284.38,140.64,284.38Z" transform="translate(-2.5 -2.5)" fill="#8ee682"/><path d="M285.3,127.09c-2.51,0-5,0-7.52,0-2.08,0-2.88-.82-2.89-2.92,0-4.22,0-8.44,0-12.65a2.75,2.75,0,0,1,1.75-2.78A30.86,30.86,0,0,0,282,106.2c2.31-1.6,4.23-1.67,6.56,0a29.44,29.44,0,0,0,5.41,2.54,2.72,2.72,0,0,1,1.8,2.74c0,4.31,0,8.62,0,12.93,0,1.85-.86,2.67-2.69,2.69C290.5,127.12,287.9,127.09,285.3,127.09Zm-3.52-2.39c2.3,0,2.42-.12,2.42-2.48s-.16-2.53-2.27-2.54-2.41.18-2.41,2.39C279.52,124.57,279.63,124.7,281.78,124.7Zm7.07,0c2.22,0,2.32-.11,2.32-2.58,0-2.25-.18-2.44-2.36-2.44s-2.32.21-2.32,2.34C286.49,124.61,286.57,124.7,288.85,124.7ZM285.36,117c2.22,0,2.28-.06,2.28-2.3s-.12-2.44-2.32-2.44-2.27.14-2.27,2.34C283.05,117,283.05,117,285.36,117Z" transform="translate(-2.5 -2.5)" fill="#8ee682"/><path d="M268.6,96.8,265,84.68h-.09c.13,2.47.19,4.11.19,4.93V96.8h-2.87V81.35h4.37l3.59,11.81h.06L274,81.35h4.38V96.8h-3V89.49c0-.35,0-.75,0-1.2s.05-1.64.14-3.59h-.1l-3.9,12.1Zm18.71.21a6,6,0,0,1-4.37-1.57A6,6,0,0,1,281.36,91a6.64,6.64,0,0,1,1.46-4.59,5.13,5.13,0,0,1,4-1.62,5.06,5.06,0,0,1,3.83,1.42A5.47,5.47,0,0,1,292,90.13V91.7h-7.47a3.19,3.19,0,0,0,.8,2.14,2.81,2.81,0,0,0,2.1.77,8.38,8.38,0,0,0,2-.22,9.25,9.25,0,0,0,1.95-.71v2.49a6.66,6.66,0,0,1-1.77.63A10.73,10.73,0,0,1,287.31,97Zm-.45-10a2,2,0,0,0-1.57.65,3,3,0,0,0-.65,1.84h4.43a2.71,2.71,0,0,0-.61-1.84A2,2,0,0,0,286.86,87.06Zm12.62,7.38a6.57,6.57,0,0,0,2-.37v2.4a6.92,6.92,0,0,1-2.9.54,3.52,3.52,0,0,1-2.76-1A4.29,4.29,0,0,1,295,93.1V87.41h-1.52V86L295.17,85l.92-2.5h2V85h3.24v2.42h-3.24V93.1a1.25,1.25,0,0,0,.37,1A1.49,1.49,0,0,0,299.48,94.44Zm12.4,2.36h-9.15V94.9l5.36-7.45h-5V85h8.64v2.09l-5.22,7.26h5.41Z" transform="translate(-2.5 -2.5)" fill="#fff"/><path d="M70.18,174.18H66.1l-6.59-11.69h-.09c.13,2.07.2,3.54.2,4.42v7.27H56.75V158.73h4l6.58,11.57h.07c-.11-2-.16-3.43-.16-4.26v-7.31h2.89Zm11,0-.61-1.61h-.08A4.62,4.62,0,0,1,78.89,174a5.09,5.09,0,0,1-2.2.4,3.54,3.54,0,0,1-2.62-1,3.78,3.78,0,0,1-1-2.77,3.15,3.15,0,0,1,1.29-2.78,7.39,7.39,0,0,1,3.89-1l2-.07v-.51a1.59,1.59,0,0,0-1.8-1.8,8.12,8.12,0,0,0-3.27.86l-1-2.18a9.27,9.27,0,0,1,4.43-1.07,5.43,5.43,0,0,1,3.57,1,3.86,3.86,0,0,1,1.25,3.15v7.87Zm-.93-5.48-1.22.05a3.82,3.82,0,0,0-2.06.5,1.63,1.63,0,0,0-.67,1.42c0,.91.51,1.36,1.53,1.36a2.4,2.4,0,0,0,1.76-.64,2.28,2.28,0,0,0,.66-1.71Zm17.21,5.48H94.35v-6.9a3.45,3.45,0,0,0-.44-1.92,1.6,1.6,0,0,0-1.42-.64,2.12,2.12,0,0,0-1.92.9,5.78,5.78,0,0,0-.59,3v5.56H86.82V162.37h2.41l.43,1.51h.17a3.41,3.41,0,0,1,1.46-1.3,4.91,4.91,0,0,1,2.11-.44,4,4,0,0,1,3.06,1.12,4.5,4.5,0,0,1,1.05,3.21Zm8.26-2.36a6.62,6.62,0,0,0,2-.37v2.4a7,7,0,0,1-2.9.54,3.52,3.52,0,0,1-2.76-1,4.29,4.29,0,0,1-.87-2.93v-5.7H99.72v-1.36l1.74-1.08.91-2.49h2v2.52h3.25v2.41h-3.25v5.7a1.27,1.27,0,0,0,.38,1A1.47,1.47,0,0,0,105.77,171.82Zm9.7,2.57a5.91,5.91,0,0,1-4.37-1.58,6,6,0,0,1-1.57-4.45,6.63,6.63,0,0,1,1.45-4.59,5.11,5.11,0,0,1,4-1.63,5.05,5.05,0,0,1,3.82,1.43,5.46,5.46,0,0,1,1.37,3.94v1.56h-7.47a3.16,3.16,0,0,0,.79,2.15,2.81,2.81,0,0,0,2.1.77,8.46,8.46,0,0,0,2-.22,10,10,0,0,0,1.94-.71v2.49a7.44,7.44,0,0,1-1.77.63A10.73,10.73,0,0,1,115.47,174.39Zm-.44-9.95a2,2,0,0,0-1.58.65,3,3,0,0,0-.65,1.84h4.43a2.65,2.65,0,0,0-.61-1.84A2,2,0,0,0,115,164.44ZM131,170.67a3.31,3.31,0,0,1-1.24,2.77,6.07,6.07,0,0,1-3.71.95,11,11,0,0,1-2.15-.18,7.38,7.38,0,0,1-1.67-.51V171a11.19,11.19,0,0,0,2,.71,7.94,7.94,0,0,0,2,.28c1.14,0,1.72-.34,1.72-1a.86.86,0,0,0-.23-.62,3.28,3.28,0,0,0-.79-.54c-.37-.2-.87-.43-1.49-.7a8.81,8.81,0,0,1-2-1.06,2.92,2.92,0,0,1-.92-1.11,3.77,3.77,0,0,1-.28-1.55,2.84,2.84,0,0,1,1.2-2.44,5.73,5.73,0,0,1,3.39-.86,9.49,9.49,0,0,1,4.07.93l-.95,2.33a17.32,17.32,0,0,0-1.63-.63,5.05,5.05,0,0,0-1.54-.24c-.94,0-1.4.26-1.4.77a.91.91,0,0,0,.45.75,11.92,11.92,0,0,0,2,.94,9,9,0,0,1,2,1,3.07,3.07,0,0,1,.93,1.12A3.33,3.33,0,0,1,131,170.67Z" transform="translate(-2.5 -2.5)" fill="#fff"/><path d="M167.35,255.46h-1.11l-9.31-14.24h-.09c.09,1.7.13,3,.13,3.84v10.4h-1.05v-16H157l9.3,14.21h.07c-.07-1.32-.1-2.57-.1-3.75V239.43h1.06Zm13.86-6a6.86,6.86,0,0,1-1.39,4.56,4.76,4.76,0,0,1-3.83,1.64,4.73,4.73,0,0,1-4.51-2.93,8.12,8.12,0,0,1-.62-3.27,6.75,6.75,0,0,1,1.39-4.54,5.21,5.21,0,0,1,7.59,0A6.89,6.89,0,0,1,181.21,249.48Zm-9.23,0a6.15,6.15,0,0,0,1.06,3.84,4,4,0,0,0,6,0,6.22,6.22,0,0,0,1.06-3.84,6.05,6.05,0,0,0-1.07-3.82,3.61,3.61,0,0,0-3-1.36,3.55,3.55,0,0,0-3,1.35A6.12,6.12,0,0,0,172,249.48Zm19.71,2.88a2.85,2.85,0,0,1-1.19,2.46,5.78,5.78,0,0,1-3.39.86,8,8,0,0,1-3.72-.74v-1.17a8.1,8.1,0,0,0,3.72.9,4.74,4.74,0,0,0,2.63-.59,1.78,1.78,0,0,0,.9-1.56,1.91,1.91,0,0,0-.72-1.51,7.82,7.82,0,0,0-2.35-1.21,13.46,13.46,0,0,1-2.46-1.11,3.38,3.38,0,0,1-1.07-1.06,2.66,2.66,0,0,1-.36-1.43,2.46,2.46,0,0,1,1.1-2.11,5.3,5.3,0,0,1,3.08-.78,9.15,9.15,0,0,1,3.6.72l-.4,1a8.33,8.33,0,0,0-3.2-.72,4.52,4.52,0,0,0-2.26.48,1.48,1.48,0,0,0-.84,1.34,1.86,1.86,0,0,0,.65,1.49,9,9,0,0,0,2.54,1.25,12,12,0,0,1,2.3,1,3.4,3.4,0,0,1,1.08,1.05A2.65,2.65,0,0,1,191.69,252.36Zm15.84,3.1-.27-1.89h-.09a5.61,5.61,0,0,1-1.81,1.63,4.73,4.73,0,0,1-2.2.48,3.76,3.76,0,0,1-2.68-.9,3.12,3.12,0,0,1-.94-2.09,3.38,3.38,0,0,1,1.28-3,7.42,7.42,0,0,1,4.25-1.11l2.23-.06v-.79a4.13,4.13,0,0,0-.68-2.57,2.59,2.59,0,0,0-2.18-.87,7.26,7.26,0,0,0-3.37.92l-.39-.94a8.8,8.8,0,0,1,3.8-.92,3.74,3.74,0,0,1,2.88,1,4.56,4.56,0,0,1,.95,3.18v7.93Zm-4.31-.77a4,4,0,0,0,3-1.09,4.13,4.13,0,0,0,1.08-3V249.4l-2,.08a7.49,7.49,0,0,0-3.51.79,2.26,2.26,0,0,0-1,2.06,2.24,2.24,0,0,0,.68,1.74A2.64,2.64,0,0,0,203.22,254.69Zm18-11.15v.76l-2.42.15a4.3,4.3,0,0,1,1,2.7,3.68,3.68,0,0,1-1.13,2.79,4.2,4.2,0,0,1-3,1.07,5.75,5.75,0,0,1-1.12-.07,2.83,2.83,0,0,0-1,.8,1.65,1.65,0,0,0-.33,1,.9.9,0,0,0,.42.83,2.81,2.81,0,0,0,1.43.26h2a4.67,4.67,0,0,1,2.91.79,2.73,2.73,0,0,1,1,2.32,3.3,3.3,0,0,1-1.51,2.91,7.54,7.54,0,0,1-4.27,1,5.8,5.8,0,0,1-3.42-.87,2.82,2.82,0,0,1-1.21-2.41,2.89,2.89,0,0,1,.75-2,3.91,3.91,0,0,1,2-1.11,2.13,2.13,0,0,1-.85-.65,1.58,1.58,0,0,1-.31-1,2.56,2.56,0,0,1,1.49-2.11,3.32,3.32,0,0,1-1.59-1.34,3.89,3.89,0,0,1-.57-2.1,3.81,3.81,0,0,1,1.11-2.87,4.16,4.16,0,0,1,3-1.08,5.32,5.32,0,0,1,1.79.23Zm-9.47,13.94c0,1.64,1.2,2.45,3.59,2.45,3.06,0,4.6-1,4.6-3a1.74,1.74,0,0,0-.72-1.56,4.35,4.35,0,0,0-2.34-.48H215C212.83,254.9,211.75,255.76,211.75,257.48Zm.9-10.22a2.77,2.77,0,0,0,.82,2.14,3.64,3.64,0,0,0,4.44,0,2.94,2.94,0,0,0,.78-2.2,3,3,0,0,0-.8-2.28,3.11,3.11,0,0,0-2.24-.77,3,3,0,0,0-2.2.82A3.09,3.09,0,0,0,212.65,247.26Zm15.69,8.42a5,5,0,0,1-4-1.6,6.52,6.52,0,0,1-1.43-4.49,7.09,7.09,0,0,1,1.38-4.57,4.5,4.5,0,0,1,3.71-1.71,4,4,0,0,1,3.26,1.47,6.18,6.18,0,0,1,1.19,4v.88h-8.42a5.71,5.71,0,0,0,1.12,3.75,3.94,3.94,0,0,0,3.16,1.29,9.23,9.23,0,0,0,1.76-.14,10.69,10.69,0,0,0,1.92-.61v1a8.27,8.27,0,0,1-1.83.6A9.66,9.66,0,0,1,228.34,255.68ZM228,244.27a3.45,3.45,0,0,0-2.71,1.14,5.47,5.47,0,0,0-1.2,3.27h7.23a5.26,5.26,0,0,0-.88-3.24A2.89,2.89,0,0,0,228,244.27Zm15.83,11.19v-7.73a3.87,3.87,0,0,0-.74-2.62,3,3,0,0,0-2.3-.81,3.92,3.92,0,0,0-3.07,1.08,5.14,5.14,0,0,0-1,3.5v6.58h-1.06V243.54h.9l.21,1.63h.06q1.14-1.86,4.05-1.86c2.66,0,4,1.45,4,4.35v7.8Zm9.51.22a5,5,0,0,1-3.93-1.61,7.88,7.88,0,0,1,.06-9.11,5.12,5.12,0,0,1,4-1.65,7.9,7.9,0,0,1,2.9.54l-.29,1a8.45,8.45,0,0,0-2.63-.51,4,4,0,0,0-3.26,1.35,6,6,0,0,0-1.11,3.9,5.83,5.83,0,0,0,1.11,3.78,3.76,3.76,0,0,0,3.1,1.36,7.39,7.39,0,0,0,3-.58v1A6.59,6.59,0,0,1,253.37,255.68Zm10.52,0a5,5,0,0,1-4-1.6,6.52,6.52,0,0,1-1.42-4.49,7.09,7.09,0,0,1,1.38-4.57,4.5,4.5,0,0,1,3.71-1.71,4,4,0,0,1,3.26,1.47,6.18,6.18,0,0,1,1.19,4v.88h-8.42a5.71,5.71,0,0,0,1.12,3.75,3.94,3.94,0,0,0,3.16,1.29,9.23,9.23,0,0,0,1.76-.14,10.69,10.69,0,0,0,1.92-.61v1a8.27,8.27,0,0,1-1.83.6A9.66,9.66,0,0,1,263.89,255.68Zm-.31-11.41a3.45,3.45,0,0,0-2.71,1.14,5.41,5.41,0,0,0-1.2,3.27h7.23a5.26,5.26,0,0,0-.88-3.24A2.89,2.89,0,0,0,263.58,244.27Zm14.93,8.09a2.86,2.86,0,0,1-1.2,2.46,5.73,5.73,0,0,1-3.39.86,8,8,0,0,1-3.72-.74v-1.17a8.1,8.1,0,0,0,3.72.9,4.74,4.74,0,0,0,2.63-.59,1.78,1.78,0,0,0,.9-1.56,1.93,1.93,0,0,0-.71-1.51,8,8,0,0,0-2.35-1.21,13.64,13.64,0,0,1-2.47-1.11,3.38,3.38,0,0,1-1.07-1.06,2.66,2.66,0,0,1-.36-1.43,2.46,2.46,0,0,1,1.1-2.11,5.31,5.31,0,0,1,3.09-.78,9.1,9.1,0,0,1,3.59.72l-.4,1a8.32,8.32,0,0,0-3.19-.72,4.56,4.56,0,0,0-2.27.48,1.48,1.48,0,0,0-.84,1.34,1.86,1.86,0,0,0,.65,1.49,9,9,0,0,0,2.54,1.25,11.73,11.73,0,0,1,2.3,1,3.55,3.55,0,0,1,1.09,1.05A2.65,2.65,0,0,1,278.51,252.36Z" transform="translate(-2.5 -2.5)" fill="#fff"/><path d="M167.35,289.84h-1.11l-9.31-14.24h-.09c.09,1.7.13,3,.13,3.84v10.4h-1.05v-16H157l9.3,14.22h.07c-.07-1.32-.1-2.57-.1-3.75V273.8h1.06Zm13.86-6a6.9,6.9,0,0,1-1.39,4.56,4.76,4.76,0,0,1-3.83,1.64,4.73,4.73,0,0,1-4.51-2.93,8.18,8.18,0,0,1-.62-3.27,6.78,6.78,0,0,1,1.39-4.55,4.74,4.74,0,0,1,3.8-1.63,4.67,4.67,0,0,1,3.79,1.65A6.92,6.92,0,0,1,181.21,283.86Zm-9.23,0a6.12,6.12,0,0,0,1.06,3.83,3.94,3.94,0,0,0,6,0,6.18,6.18,0,0,0,1.06-3.83A6.08,6.08,0,0,0,179,280a3.61,3.61,0,0,0-3-1.36,3.53,3.53,0,0,0-3,1.36A6.12,6.12,0,0,0,172,283.86Zm15.55,5.23a8.37,8.37,0,0,0,1.77-.17v.87a5.48,5.48,0,0,1-1.79.27,2.91,2.91,0,0,1-2.29-.85,4,4,0,0,1-.73-2.65v-7.7h-1.73v-.64l1.73-.49L185,275h.54v2.88H189v.95h-3.43v7.54a3.45,3.45,0,0,0,.48,2A1.69,1.69,0,0,0,187.53,289.09Zm8.9-11.41a9.31,9.31,0,0,1,1.59.16l-.21,1a6.25,6.25,0,0,0-1.51-.19,2.9,2.9,0,0,0-2.45,1.3,5.33,5.33,0,0,0-1,3.27v6.58h-1.07V277.91h.91l.1,2.15h.08a5,5,0,0,1,1.54-1.84A3.49,3.49,0,0,1,196.43,277.68Zm8.69,12.38a5.05,5.05,0,0,1-4-1.61,6.49,6.49,0,0,1-1.42-4.48,7.15,7.15,0,0,1,1.37-4.57,4.54,4.54,0,0,1,3.72-1.72,4,4,0,0,1,3.25,1.47,6.14,6.14,0,0,1,1.2,4V284h-8.42a5.71,5.71,0,0,0,1.12,3.75,3.91,3.91,0,0,0,3.16,1.3,10.21,10.21,0,0,0,1.76-.14,10.86,10.86,0,0,0,1.92-.62v1a8.83,8.83,0,0,1-1.83.6A10.54,10.54,0,0,1,205.12,290.06Zm-.31-11.41a3.52,3.52,0,0,0-2.72,1.13,5.47,5.47,0,0,0-1.19,3.28h7.23a5.33,5.33,0,0,0-.88-3.24A2.89,2.89,0,0,0,204.81,278.65Zm17.68-1a4.69,4.69,0,0,1,2.19.48,4.37,4.37,0,0,1,1.66,1.61h.06c0-.92-.06-1.83-.06-2.71v-4.29h1v17.07h-.7l-.27-1.82h-.08a4.31,4.31,0,0,1-3.83,2,4.56,4.56,0,0,1-3.7-1.54,6.83,6.83,0,0,1-1.28-4.47,7.55,7.55,0,0,1,1.27-4.73A4.39,4.39,0,0,1,222.49,277.68Zm0,1a3.29,3.29,0,0,0-2.88,1.37,6.92,6.92,0,0,0-1,4q0,5.07,3.86,5.07a3.46,3.46,0,0,0,2.9-1.17,6.32,6.32,0,0,0,.93-3.87v-.19a6.73,6.73,0,0,0-.91-4A3.47,3.47,0,0,0,222.49,278.67Zm15.93,11.17-.27-1.89h-.09a5.61,5.61,0,0,1-1.81,1.63,4.73,4.73,0,0,1-2.2.48,3.76,3.76,0,0,1-2.68-.9,3.24,3.24,0,0,1-1-2.49,3.07,3.07,0,0,1,1.42-2.71,7.54,7.54,0,0,1,4.13-1l2.22-.07v-.79a4,4,0,0,0-.68-2.56,2.59,2.59,0,0,0-2.18-.87,7.29,7.29,0,0,0-3.37.92l-.39-.94a8.66,8.66,0,0,1,3.8-.92,3.74,3.74,0,0,1,2.88,1,4.51,4.51,0,0,1,.95,3.18v7.93Zm-4.3-.77a4,4,0,0,0,2.95-1.09,4.14,4.14,0,0,0,1.08-3v-1.17l-2,.09a7.65,7.65,0,0,0-3.52.78,2.29,2.29,0,0,0-1.05,2.07,2.24,2.24,0,0,0,.68,1.74A2.72,2.72,0,0,0,234.12,289.07Zm12,0a8.27,8.27,0,0,0,1.76-.17v.87a5.43,5.43,0,0,1-1.79.27,2.88,2.88,0,0,1-2.28-.85,4,4,0,0,1-.74-2.65v-7.7H241.3v-.64l1.73-.49.54-2.7h.55v2.88h3.43v.95h-3.43v7.54a3.54,3.54,0,0,0,.47,2A1.71,1.71,0,0,0,246.08,289.09Zm11.39.75L257.2,288h-.09a5.61,5.61,0,0,1-1.81,1.63,4.73,4.73,0,0,1-2.2.48,3.76,3.76,0,0,1-2.68-.9,3.25,3.25,0,0,1-1-2.49,3.08,3.08,0,0,1,1.43-2.71,7.5,7.5,0,0,1,4.12-1l2.23-.07v-.79a4.09,4.09,0,0,0-.68-2.56,2.59,2.59,0,0,0-2.18-.87,7.26,7.26,0,0,0-3.37.92l-.4-.94a8.73,8.73,0,0,1,3.81-.92,3.74,3.74,0,0,1,2.88,1,4.56,4.56,0,0,1,.95,3.18v7.93Zm-4.31-.77a4,4,0,0,0,3-1.09,4.14,4.14,0,0,0,1.08-3v-1.17l-2,.09a7.63,7.63,0,0,0-3.51.78,2.29,2.29,0,0,0-1,2.07,2.24,2.24,0,0,0,.68,1.74A2.69,2.69,0,0,0,253.16,289.07Zm13.55,1a5,5,0,0,1-3.93-1.62,6.54,6.54,0,0,1-1.42-4.49,6.73,6.73,0,0,1,1.47-4.62,5.15,5.15,0,0,1,4-1.65,7.9,7.9,0,0,1,2.9.54l-.29,1a8.22,8.22,0,0,0-2.63-.52,3.94,3.94,0,0,0-3.26,1.36,6,6,0,0,0-1.11,3.9,5.82,5.82,0,0,0,1.11,3.77,3.77,3.77,0,0,0,3.09,1.37,7.41,7.41,0,0,0,3-.58v1A6.59,6.59,0,0,1,266.71,290.06Zm10.52,0a5.05,5.05,0,0,1-4-1.61,6.49,6.49,0,0,1-1.42-4.48,7.09,7.09,0,0,1,1.37-4.57,4.53,4.53,0,0,1,3.71-1.72,4,4,0,0,1,3.26,1.47,6.14,6.14,0,0,1,1.2,4V284h-8.43a5.71,5.71,0,0,0,1.13,3.75,3.9,3.9,0,0,0,3.16,1.3,10,10,0,0,0,1.75-.14,10.36,10.36,0,0,0,1.92-.62v1a9,9,0,0,1-1.82.6A10.54,10.54,0,0,1,277.23,290.06Zm-.32-11.41a3.49,3.49,0,0,0-2.71,1.13,5.41,5.41,0,0,0-1.19,3.28h7.23a5.26,5.26,0,0,0-.89-3.24A2.87,2.87,0,0,0,276.91,278.65Zm15.84,11.19V282.1a3.79,3.79,0,0,0-.75-2.61,2.93,2.93,0,0,0-2.3-.82,3.94,3.94,0,0,0-3.07,1.08,5.17,5.17,0,0,0-1,3.51v6.58h-1.07V277.91h.91l.2,1.64h.07c.76-1.24,2.11-1.87,4.05-1.87,2.65,0,4,1.46,4,4.36v7.8Zm7.92-.75a8.3,8.3,0,0,0,1.77-.17v.87a5.43,5.43,0,0,1-1.79.27,2.88,2.88,0,0,1-2.28-.85,4,4,0,0,1-.74-2.65v-7.7H295.9v-.64l1.73-.49.54-2.7h.55v2.88h3.43v.95h-3.43v7.54a3.46,3.46,0,0,0,.47,2A1.69,1.69,0,0,0,300.67,289.09Zm9,1a5.05,5.05,0,0,1-4-1.61,6.49,6.49,0,0,1-1.42-4.48,7.15,7.15,0,0,1,1.37-4.57,4.54,4.54,0,0,1,3.72-1.72,4,4,0,0,1,3.25,1.47,6.14,6.14,0,0,1,1.2,4V284h-8.42a5.65,5.65,0,0,0,1.12,3.75,3.9,3.9,0,0,0,3.16,1.3,10.21,10.21,0,0,0,1.76-.14,10.86,10.86,0,0,0,1.92-.62v1a8.83,8.83,0,0,1-1.83.6A10.54,10.54,0,0,1,309.69,290.06Zm-.31-11.41a3.52,3.52,0,0,0-2.72,1.13,5.47,5.47,0,0,0-1.19,3.28h7.23a5.33,5.33,0,0,0-.88-3.24A2.9,2.9,0,0,0,309.38,278.65Zm12.28-1a9.31,9.31,0,0,1,1.59.16l-.2,1a6.39,6.39,0,0,0-1.52-.19,2.91,2.91,0,0,0-2.45,1.3,5.33,5.33,0,0,0-1,3.27v6.58h-1.06V277.91h.9l.11,2.15h.07a5,5,0,0,1,1.54-1.84A3.49,3.49,0,0,1,321.66,277.68Z" transform="translate(-2.5 -2.5)" fill="#fff"/></svg>